<svg width="19" height="20" viewBox="0 0 19 20" fill="none" xmlns="http://www.w3.org/2000/svg">
<path fill-rule="evenodd" clip-rule="evenodd" d="M10.8597 13.2455C11.9756 13.2455 12.8839 14.1474 12.8839 15.2558V18.1068C12.8839 18.345 13.0748 18.5359 13.3195 18.5415H15.086C16.4781 18.5415 17.6098 17.4237 17.6098 16.0501V7.96448C17.6033 7.49179 17.378 7.04691 16.9916 6.75126L10.881 1.87799C10.0607 1.22828 8.91332 1.22828 8.09029 1.87984L2.02141 6.7494C1.6201 7.05433 1.39488 7.49921 1.39024 7.98023V16.0501C1.39024 17.4237 2.5219 18.5415 3.914 18.5415H5.69722C5.94839 18.5415 6.15229 18.3422 6.15229 18.0975C6.15229 18.0437 6.15878 17.99 6.1699 17.939V15.2558C6.1699 14.1538 7.07263 13.253 8.1802 13.2455H10.8597ZM15.086 19.9317H13.3028C12.2814 19.9076 11.4936 19.1059 11.4936 18.1068V15.2558C11.4936 14.9138 11.2091 14.6358 10.8597 14.6358H8.18483C7.84283 14.6376 7.56015 14.9166 7.56015 15.2558V18.0975C7.56015 18.167 7.55088 18.2337 7.53141 18.2968C7.43132 19.2143 6.64722 19.9317 5.69722 19.9317H3.914C1.75541 19.9317 0 18.1902 0 16.0501V7.97374C0.00926829 7.05248 0.433756 6.20906 1.16688 5.65389L7.22371 0.792671C8.55741 -0.263914 10.4157 -0.263914 11.7466 0.790817L17.847 5.65667C18.5635 6.20257 18.988 7.04413 19 7.95428V16.0501C19 18.1902 17.2446 19.9317 15.086 19.9317Z" fill="#0066FF"/>
</svg>
