<svg width="22" height="27" viewBox="0 0 22 27" fill="none" xmlns="http://www.w3.org/2000/svg">
<path d="M11.0974 0.879028C13.8886 0.879028 16.5655 2.04063 18.5392 4.1083C20.5128 6.17597 21.6216 8.98033 21.6216 11.9045C21.6216 17.1728 18.2276 22.0221 11.5675 26.4617C11.427 26.5552 11.2639 26.6048 11.0974 26.6048C10.931 26.6048 10.7679 26.5552 10.6274 26.4617C3.96729 22.0221 0.573242 17.1728 0.573242 11.9045C0.573242 8.98033 1.68204 6.17597 3.65571 4.1083C5.62938 2.04063 8.30625 0.879028 11.0974 0.879028ZM11.0974 8.22932C10.167 8.22932 9.27475 8.61652 8.61686 9.30574C7.95897 9.99496 7.58937 10.9298 7.58937 11.9045C7.58937 12.8792 7.95897 13.814 8.61686 14.5032C9.27475 15.1924 10.167 15.5796 11.0974 15.5796C12.0278 15.5796 12.9201 15.1924 13.578 14.5032C14.2359 13.814 14.6055 12.8792 14.6055 11.9045C14.6055 10.9298 14.2359 9.99496 13.578 9.30574C12.9201 8.61652 12.0278 8.22932 11.0974 8.22932Z" fill="#10B981"/>
</svg>
